<svg xmlns="http://www.w3.org/2000/svg" version="1.1" xmlns:xlink="http://www.w3.org/1999/xlink" xmlns:svgjs="http://svgjs.com/svgjs" width="1440" height="560" preserveAspectRatio="none" viewBox="0 0 1440 560"><g mask="url(&quot;#SvgjsMask1010&quot;)" fill="none"><rect width="1440" height="560" x="0" y="0" fill="rgba(161, 139, 229, 1)"></rect><path d="M 0,206 C 57.6,181.6 172.8,88.4 288,84 C 403.2,79.6 460.8,195.6 576,184 C 691.2,172.4 748.8,10.8 864,26 C 979.2,41.2 1036.8,253.6 1152,260 C 1267.2,266.4 1382.4,98.4 1440,58L1440 560L0 560z" fill="rgba(129, 111, 183, 1)"></path><path d="M 0,346 C 96,370 288,462 480,466 C 672,470 768,361.6 960,366 C 1152,370.4 1344,463.6 1440,488L1440 560L0 560z" fill="rgba(145, 125, 206, 1)"></path></g><defs><mask id="SvgjsMask1010"><rect width="1440" height="560" fill="#ffffff"></rect></mask></defs></svg>